PathFileType	4	(X/Y/Z)	C:/Users/beibeiliu/ov580/test_trc/User3\out8_training_dense_left.trc
DataRate	CameraRate	NumFrames	NumMarkers	Units	OrigDataRate	OrigDataStartFrame	OrigNumFrames
120	120	22	19	mm	120	438	500
Frame#	Time	ThumbCMC			ThumbMCP			ThumbIP			ThumbTip			IndexMCP			IndexPIP			IndexTip			MiddleMCP			MiddlePIP			MiddleTip			RingMCP			RingPIP			RingTip			PinkyMCP			PinkyPIP			PinkyTip			BackHand1			BackHand2			BackHand3	
		X0	Y0	Z0	X1	Y1	Z1	X2	Y2	Z2	X3	Y3	Z3	X4	Y4	Z4	X5	Y5	Z5	X6	Y6	Z6	X7	Y7	Z7	X8	Y8	Z8	X9	Y9	Z9	X10	Y10	Z10	X11	Y11	Z11	X12	Y12	Z12	X13	Y13	Z13	X14	Y14	Z14	X15	Y15	Z15	X16	Y16	Z16	X17	Y17	Z17	X18	Y18	Z18	
437	3.64167	-84.2632	32.735	42.2817	-68.8962	25.388	15.9593	-63.5429	23.3822	-15.6534	-61.1714	18.0883	-39.679	-100.344	75.7525	-14.0755	-93.0309	82.1329	-42.8414	-82.7946	78.4173	-69.3149	-127.511	64.3764	-26.2986	-118.356	69.1556	-55.4844	-104.037	54.3671	-87.7204	-132.133	35.0128	-25.9854	-114.132	14.892	-46.2638	-94.7518	-7.96083	-34.3481	-136.108	14.4553	-16.1022	-113.31	-6.68104	-18.8479	-100.41	-12.7994	1.4444	-148.315	39.6116	24.9546	-147.253	26.7873	58.0268	-115.752	53.2445	48.1984	
438	3.65	-85.0235	30.6903	44.2431	-70.3353	24.4522	14.3768	-59.7968	21.3208	-15.2132	-62.7034	14.8497	-37.1198	-103.46	73.0052	-17.8412	-92.373	83.194	-40.7172	-88.1118	80.3292	-68.2795	-128.173	62.1528	-29.4458	-120.364	62.5156	-59.977	-109.591	51.1837	-85.3819	-128.095	32.5091	-27.1081	-115.451	8.91022	-43.7921	-96.0263	-11.2793	-30.2935	-136.892	9.31775	-15.3468	-111.408	-7.43331	-14.8737	-98.4441	-13.282	8.64277	-145.116	40.195	29.407	-143.424	29.7973	54.7967	-120.592	49.6488	47.5532	
439	3.65833	-81.1703	31.8379	41.3765	-70.7877	22.8667	14.3385	-61.5406	19.4794	-14.7329	-62.3033	13.6282	-37.0051	-105.824	69.3209	-17.061	-93.5943	80.5504	-44.7878	-88.3821	79.2718	-70.8436	-126.728	59.361	-26.8521	-121.822	59.8741	-55.9419	-113.89	45.6748	-88.4957	-130.78	27.5752	-24.5162	-112.208	4.54008	-39.355	-93.0596	-17.0711	-22.8225	-136.331	5.35876	-15.8061	-114.096	-9.767	-14.4869	-100.806	-17.7382	11.4536	-145.339	39.0604	27.9151	-142.625	27.067	59.6089	-120.369	49.8164	44.5342	
440	3.66667	-84.9056	29.9542	41.8596	-71.5465	23.0544	10.6105	-65.632	19.4998	-18.5848	-57.5011	13.949	-41.173	-105.259	68.7004	-21.9637	-95.4949	76.5663	-45.9657	-88.1512	76.6927	-69.3661	-127.468	55.6137	-29.1518	-122.941	53.9929	-60.4424	-115.092	41.4492	-88.9817	-129.664	19.3869	-28.9385	-111.242	-1.76966	-36.4013	-91.4119	-16.691	-19.7748	-133.711	3.14605	-14.8508	-114.386	-13.3006	-12.118	-99.195	-14.8584	16.7749	-149.056	34.5442	26.7559	-145.95	28.4508	56.49	-121.136	49.252	43.571	
441	3.675	-82.5857	32.438	41.016	-71.3776	23.8073	9.08431	-60.1119	19.815	-18.9421	-59.6132	13.5877	-39.41	-102.212	66.0242	-20.6853	-95.846	70.4246	-51.5404	-87.3964	71.8406	-70.4688	-126.089	50.9	-35.3648	-121.494	47.157	-59.2142	-111.691	37.2445	-88.9059	-129.066	17.8012	-24.6437	-106.536	-2.24546	-33.609	-89.5341	-18.9835	-12.8276	-135.07	1.81845	-12.6089	-109.605	-17.0658	-5.47711	-99.7597	-13.8157	21.4183	-144.876	35.3402	26.6306	-146.915	26.049	57.8955	-120.323	47.1679	45.527	
442	3.68333	-82.0607	33.0527	41.2982	-68.3476	21.9783	12.7988	-64.6249	18.2919	-15.6927	-57.4794	13.2203	-41.8479	-103.019	63.8469	-27.1535	-95.3849	65.7138	-50.6448	-88.1392	66.6148	-76.6192	-124.041	45.6521	-32.5061	-119.435	39.8369	-59.5278	-106.752	27.2135	-92.3195	-123.142	13.3261	-25.5309	-101.671	-12.3579	-26.8441	-85.7799	-21.1257	1.1141	-129.661	-6.40681	-13.6078	-108.17	-17.9256	-4.13962	-100.382	-13.4477	26.1293	-147.305	32.1176	22.4012	-146.706	24.2684	55.3655	-121.962	47.9061	43.5818	
443	3.69167	-85.3356	30.9472	43.2528	-70.7895	23.7017	9.28631	-62.7332	18.5216	-18.1488	-56.5293	11.8469	-37.1453	-104.437	58.5201	-28.915	-96.5138	59.3686	-52.5738	-90.5946	58.5034	-74.2069	-124.948	35.653	-36.1576	-115.924	29.8941	-59.2939	-100.591	21.3398	-86.6877	-119.388	5.00088	-24.8036	-97.5861	-11.2749	-24.0941	-81.9163	-19.5873	4.51869	-127.045	-6.63422	-10.9124	-102.112	-16.2903	-1.24439	-97.2134	-14.5799	27.5857	-149.62	28.0679	21.0457	-147.849	18.995	56.888	-121.79	47.2079	41.071	
444	3.7	-88.436	32.3781	40.1894	-74.1894	23.3193	10.8005	-63.9658	17.5687	-13.5673	-56.6802	11.7615	-33.8085	-105.174	53.8662	-29.562	-94.4449	57.0071	-49.4297	-84.8447	58.7583	-78.1265	-120.426	32.6456	-36.5331	-109.825	23.9811	-59.2237	-96.2371	11.8224	-85.8496	-116.696	2.00956	-22.4131	-89.8071	-17.7829	-17.0987	-78.8467	-22.0042	8.6267	-123.309	-14.7133	-9.90421	-97.6375	-21.2506	3.79641	-91.0707	-13.6926	28.5494	-148.528	23.8419	19.8422	-148.763	17.4015	53.7323	-125.954	42.6321	42.8562	
445	3.70833	-88.1212	34.4645	42.9869	-70.8365	25.2075	15.0471	-60.4179	21.1937	-18.2928	-54.6672	15.5076	-34.7383	-106.371	53.616	-29.7438	-97.1153	55.4587	-53.8555	-89.0449	55.9223	-77.4987	-122.302	27.8245	-36.8896	-108.133	24.3616	-59.268	-93.667	12.3775	-83.9368	-112.407	4.14289	-22.4388	-90.1542	-15.121	-19.024	-72.7367	-19.9236	7.13002	-120.814	-10.7037	-10.7134	-96.9345	-19.5917	-0.384324	-87.1427	-14.264	27.0228	-148.764	20.3101	21.4744	-145.912	15.7381	53.569	-127.446	44.0818	39.9944	
446	3.71667	-89.725	37.4454	42.8118	-73.2525	29.7266	9.60729	-60.5575	27.3778	-12.6194	-55.551	21.3003	-32.3524	-109.778	57.046	-26.3652	-97.9795	60.4347	-53.7574	-92.8328	60.9837	-77.9226	-122.679	27.7587	-38.1231	-110.232	24.2606	-58.7135	-91.9823	16.5207	-87.1414	-112.076	4.21936	-21.9546	-86.3596	-9.90102	-19.7517	-65.9312	-15.2537	8.03036	-115.517	-13.968	-11.8773	-91.5371	-16.7267	-0.176711	-82.8139	-12.2917	29.7047	-149.919	15.8615	21.6982	-147.574	14.7452	54.7015	-129.958	41.3672	41.1301	
447	3.725	-91.8436	42.226	42.2988	-75.5852	34.9756	13.3292	-66.9663	31.6435	-12.6882	-59.3089	29.3832	-38.6782	-118.497	56.9782	-29.0718	-106.501	64.3527	-50.7757	-102.872	66.1188	-77.4541	-126.614	33.607	-35.7147	-115.056	27.836	-58.3282	-100.18	22.6605	-85.5075	-115.766	8.4563	-21.7051	-86.1156	-8.84847	-21.4748	-66.0742	-12.4757	3.20349	-118.705	-8.10186	-11.498	-91.6248	-14.2538	-3.25674	-81.254	-6.0943	22.9199	-150.315	14.5496	19.2472	-147.602	11.1063	53.4361	-132.117	44.1844	40.6492	
448	3.73333	-99.4582	42.2994	42.1958	-84.6497	38.1742	13.7046	-75.3565	42.9613	-18.5866	-67.393	42.0803	-39.5021	-127.717	63.5362	-23.0886	-123.136	67.8255	-47.9769	-116.338	75.0308	-72.8837	-137.471	35.4639	-33.0882	-124.387	36.7915	-59.9634	-111.462	36.853	-87.7927	-121.369	8.17455	-24.1023	-91.3254	-0.647769	-24.9873	-71.3268	-2.41027	-6.68323	-122.313	-6.71454	-14.2973	-98.3972	-8.93534	-9.28639	-80.8385	-4.39618	19.066	-153.51	16.9707	23.7103	-149.19	7.55833	54.6371	-137.32	45.5758	42.6874	
449	3.74167	-102.687	47.9767	41.2767	-95.3538	44.6982	9.531	-87.8524	48.6384	-20.0872	-83.8546	47.4836	-40.0041	-139.226	70.1218	-17.8957	-136.839	76.8883	-46.4176	-135.402	80.9866	-68.8866	-148.928	43.0383	-31.3577	-140.91	45.3732	-56.2323	-130.031	44.9915	-85.1993	-130.215	17.4296	-23.4369	-105.727	10.585	-28.5853	-77.7698	3.72519	-9.68398	-134.773	-2.03674	-11.3911	-107.412	-4.12581	-12.0368	-86.2748	-2.44606	12.0774	-159.859	21.5253	28.7276	-152.582	10.7092	58.858	-143.737	44.0849	49.2376	
450	3.75	-106.03	47.3867	41.3354	-99.9054	44.5088	9.79554	-99.469	47.2223	-22.4916	-97.7714	45.9156	-43.3724	-148.374	73.6231	-18.0253	-146.012	81.0634	-42.4593	-143.451	88.5189	-64.4384	-159.828	48.1955	-25.4664	-156.935	45.8546	-51.9206	-146.022	46.2001	-87.7345	-141.632	20.6151	-22.0369	-112.995	8.17689	-29.122	-88.2233	-1.33388	-9.9917	-141.67	2.70286	-12.4144	-114.975	-2.85329	-11.4683	-97.358	-2.42851	10.3427	-165.586	17.8971	34.0941	-155.805	11.4262	64.7953	-143.365	46.4853	51.7434	
451	3.75833	-109.341	42.3656	36.977	-100.202	38.6931	6.22343	-100.102	38.6055	-22.9126	-100.146	38.0643	-50.5844	-147.758	67.5601	-18.8979	-143.393	77.3522	-45.5617	-141.949	82.2048	-73.0206	-164.063	43.0879	-31.4153	-159.825	39.5503	-57.8869	-154.388	35.3081	-89.5831	-148.045	14.2121	-23.3349	-124.897	1.212	-30.5066	-98.1972	-5.84084	-10.9398	-150.172	-0.446455	-10.9179	-123.742	-7.33139	-11.3055	-105.458	-7.81239	9.59774	-168.503	23.7405	33.1086	-159.98	12.0831	61.7694	-147.421	44.7251	44.5014	
452	3.76667	-104.833	36.6545	34.3006	-102.018	27.9107	2.01675	-98.347	25.8187	-24.5225	-98.2832	20.7564	-49.2247	-142.417	59.0157	-29.41	-137.473	62.388	-50.9933	-138.39	61.3598	-81.2599	-162.121	32.1046	-35.9297	-156.046	29.9434	-61.528	-152.844	20.0499	-92.8235	-152.19	6.48241	-21.8728	-125.832	-11.1331	-27.5481	-101.865	-17.6155	-3.89549	-154.101	-12.8198	-10.6863	-128.465	-18.6214	-8.93351	-114.343	-16.0215	17.4443	-169.721	21.0195	30.9022	-161.999	17.6697	57.3252	-143.212	46.5817	43.84	
453	3.775	-107.118	28.6359	34.7441	-98.6393	18.4349	1.19799	-94.5211	12.3485	-30.9366	-93.9614	5.17553	-47.9299	-139.389	45.9519	-36.2832	-134.218	46.1504	-60.5179	-129.624	45.7527	-87.0621	-159.218	22.648	-35.1229	-152.932	13.9331	-63.2168	-143.766	2.95383	-91.7091	-148.241	-3.31611	-23.4593	-121.417	-22.4767	-24.7775	-103.901	-27.7008	2.69892	-151.299	-19.1548	-11.1283	-126.298	-25.1034	-1.80481	-116.847	-16.3921	22.4247	-168.78	21.0571	26.6528	-163.864	17.9508	57.3524	-142.835	44.2631	36.5413	
454	3.78333	-102.309	26.9062	33.2623	-97.4212	11.5541	2.65529	-87.6958	3.81997	-26.263	-84.6532	-5.98203	-46.8193	-130.55	39.2502	-35.5547	-124.808	36.2353	-61.8207	-118.986	33.616	-87.2903	-151.037	13.1424	-43.4778	-142.955	-0.0184079	-66.9295	-132.098	-16.2884	-92.2968	-143.228	-9.78906	-23.3177	-119.253	-34.3665	-18.6754	-103.371	-35.2911	6.73607	-151.271	-26.748	-8.25289	-126.229	-33.6938	-0.26588	-116.458	-22.0666	26.8749	-167.916	16.6183	20.3279	-163.895	17.9468	55.1799	-146.482	38.5813	31.0356	
455	3.79167	-105.488	24.6407	33.5363	-89.9972	9.87223	8.26857	-81.8286	-0.207599	-23.7123	-73.1783	-8.91461	-39.6488	-124.107	30.9316	-40.0333	-114.124	27.1552	-64.9634	-107.094	20.5764	-87.2037	-141.658	5.39858	-40.2235	-124.957	-7.64705	-66.5843	-111.289	-26.1756	-85.3546	-136.909	-17.5532	-21.9275	-110.86	-33.8738	-18.0529	-92.8942	-35.0759	11.2002	-144.148	-27.6685	-7.32668	-117.228	-35.5654	3.45469	-108.773	-25.6282	29.8436	-163.641	12.4948	17.9713	-162.648	13.9378	52.1503	-143.729	35.0589	27.6304	
456	3.8	-105.589	25.965	32.628	-83.548	13.3625	11.0418	-73.93	1.40513	-15.5071	-63.9275	-7.64949	-30.6345	-117.943	23.0838	-40.8871	-102.98	20.5544	-63.1215	-94.2622	12.1509	-85.0793	-126.098	-0.46718	-42.9007	-109.413	-13.5019	-59.3249	-89.6108	-33.999	-74.9946	-124.761	-22.4371	-19.4282	-97.1056	-37.2612	-9.50152	-84.7471	-36.1361	17.4095	-128.082	-36.3257	-6.30546	-108.02	-39.3427	6.3457	-100.636	-24.558	31.5996	-158.624	5.53481	12.2775	-161.868	12.8218	43.6427	-143.167	34.7211	26.819	
457	3.80833	-102.307	32.1565	32.072	-84.0829	15.3935	15.4454	-66.6362	6.65988	-9.54827	-52.4391	-1.19728	-24.6183	-108.189	22.7542	-40.2704	-92.9495	17.1894	-60.7556	-75.6991	14.7759	-81.1199	-114.48	-3.56466	-38.2222	-93.5477	-18.363	-54.9204	-64.9128	-30.9349	-67.7095	-111.217	-27.0245	-15.2703	-81.5385	-34.4318	-0.379966	-71.6784	-25.1124	26.7487	-118.673	-37.127	-2.27502	-93.9133	-37.029	10.7166	-89.1115	-21.8875	37.8514	-154.975	0.658885	12.2766	-159.124	3.67908	41.5326	-143.705	30.4833	22.6378	
458	3.81667	-108.838	35.4245	37.6157	-81.676	24.151	16.9027	-61.1282	18.4728	-2.35445	-43.7465	12.9729	-19.5226	-103.781	21.392	-38.2413	-85.095	23.9099	-57.1509	-66.8149	16.9529	-76.2534	-100.668	-8.69012	-38.5472	-75.4019	-11.7937	-50.1182	-48.3883	-19.3209	-58.018	-97.7886	-21.3909	-13.1016	-67.9657	-23	1.23069	-63.5536	-16.9928	31.8457	-101.844	-37.7121	3.50686	-78.8322	-31.8871	17.6774	-75.6193	-13.7216	39.0435	-147.063	-11.6442	13.7395	-158.359	-3.49708	41.6594	-141.633	27.7002	21.5692	
